<svg xmlns="http://www.w3.org/2000/svg" width="354" height="306" viewBox="0 0 354 306">
    <g fill="none" fill-rule="evenodd" transform="translate(1 1)">
        <path fill="#E5EEFD" fill-rule="nonzero" d="M328.471 190.22c-1.703 17.273-11.494 34.577-14.018 36.6-2.523 2.023-7.07.913-10.227.913H53.994l-.145-.259c-6.23-10.862-13.26-21.402-16.79-33.55-9.813-33.83 21.462-56.715 41.669-78.377 11.567-12.397 12.46-30.25 22.459-43.488 13.758-18.113 36.913-27.564 59.082-29.048 25.44-1.69 47.068 7.47 62.53 28.062 12.72 16.941 19.956 43.167 39.934 53.355 7.165 3.662 15.472 4.15 23.238 6.224 25.315 6.754 45.106 32.948 42.5 59.568z"/>
        <path fill="#93B9F4" fill-rule="nonzero" d="M267.645 183.768a60.732 60.732 0 0 0-.125 2.24"/>
        <path fill="#FFF" fill-rule="nonzero" d="M248.28 47.877l4.464 1.006-4.59-11.183"/>
        <path fill="#717791" fill-rule="nonzero" d="M248.404 47.327l4.558.622-1.1 1.297-5.192-10.945a1.565 1.565 0 0 1 1.527-2.339c.586.063 1.088.45 1.297 1.001l.063.145 4.039 11.412v.114a.923.923 0 0 1-.561 1.172.863.863 0 0 1-.581 0l-4.289-1.37a.57.57 0 0 1 .25-1.11h-.011z"/>
        <path fill="#FFF" fill-rule="nonzero" d="M252.786 23.643l-11.92 33.446-49.145-13.403z"/>
        <path fill="#717791" fill-rule="nonzero" d="M249.255 38.198l-7.403 19.244c-.186.51-.734.79-1.256.643l-49.28-12.895a1.567 1.567 0 0 1-.104-2.988l61.107-19.877h.103a1.33 1.33 0 0 1 1.683.861c.108.313.09.656-.052.955l-2.918 6.546a.831.831 0 0 1-1.568-.55l1.88-6.93 1.733 1.784L192.21 45.17l-.115-2.988 49 13.902-1.236.664 6.438-19.587a1.562 1.562 0 0 1 2.97.965.663.663 0 0 1-.01.073z"/>
        <path fill="#FFF" fill-rule="nonzero" stroke="#717791" stroke-linecap="round" stroke-linejoin="round" stroke-width="3.01" d="M216.651 41.206l-23.664 2.656M223.162 40.47l-.686.083M247.002 37.793l-19.282 2.168"/>
        <path fill="#9FC3FD" fill-rule="nonzero" d="M257.801 18.985a7.44 7.44 0 0 0-3.198-.851 16.503 16.503 0 0 0-3.53.27c-1.205.197-2.42.477-3.624.767l-3.634.965a.644.644 0 0 1-.426-1.214 39.475 39.475 0 0 1 3.592-1.38 32.211 32.211 0 0 1 3.749-1.037 14.747 14.747 0 0 1 4.029-.311c.718.052 1.421.231 2.076.53a5.305 5.305 0 0 1 1.714 1.296.632.632 0 0 1-.063.871.623.623 0 0 1-.685.094zM257.51 14.856a11.793 11.793 0 0 0-3.395-.975 9.696 9.696 0 0 0-3.572.321.343.343 0 0 1-.415-.249.332.332 0 0 1 .187-.394 8.054 8.054 0 0 1 3.893-.685c.671.053 1.333.186 1.973.395a4.362 4.362 0 0 1 1.724 1.037.321.321 0 0 1 0 .456.301.301 0 0 1-.343.063l-.052.03z"/>
        <path stroke="#7282C4" stroke-dasharray="8" stroke-linecap="round" stroke-linejoin="round" stroke-width="2" d="M258.081 40.46c24.817-1.484 61.761 15.675 64.066 35.614 3.188 27.595-36.238 18.03-26.997-4.575 3.25-7.905 22.98-12.45 33.633 8.994 19.853 39.847-7.622 114.168-114.582 107.28" opacity=".3"/>
        <path fill="#FFF" fill-rule="nonzero" d="M92.548 296.099l-4.361 2.2 1.848-12.76"/>
        <path fill="#717791" fill-rule="nonzero" d="M92.808 296.607l-4.154 2.542a.914.914 0 0 1-1.391-.871v-.115l1.225-12.874a1.566 1.566 0 0 1 2.505-1.203c.468.348.703.928.61 1.504v.145l-2.44 12.667-1.381-1.037 4.527-1.847a.582.582 0 0 1 .748.311.58.58 0 0 1-.25.778z"/>
        <path fill="#FFF" fill-rule="nonzero" d="M81.583 272.197l21.037 31.506 47.338-26.63z"/>
        <path fill="#717791" fill-rule="nonzero" d="M91.707 284.553l11.785 18.57-1.38-.333 47.078-27.076.654 2.915-68.354-5.052 1.246-2.148 3.78 6.65a.84.84 0 0 1-.312 1.141.831.831 0 0 1-1.039-.218l-4.703-6.037a1.337 1.337 0 0 1 .238-1.868c.258-.206.585-.306.914-.28h.104l68.386 4.7c.857.06 1.502.803 1.443 1.66a1.597 1.597 0 0 1-.8 1.255l-47.587 26.184a1.039 1.039 0 0 1-1.381-.311L89.11 286.327a1.565 1.565 0 0 1 1.125-2.53 1.568 1.568 0 0 1 1.44.735l.03.02z"/>
        <path fill="#FFF" fill-rule="nonzero" stroke="#717791" stroke-linecap="round" stroke-linejoin="round" stroke-width="3.01" d="M123.532 280.984l25.17-3.403M116.596 281.918l.737-.104M91.25 285.33l20.507-2.759"/>
        <path stroke="#7282C4" stroke-dasharray="8" stroke-linecap="round" stroke-linejoin="round" stroke-width="2" d="M76.121 287.986c-24.816 1.474-61.76-15.685-64.066-35.624-3.188-27.596 36.249-18.03 26.997 4.575-3.25 7.905-22.968 12.449-33.632-8.995-19.812-39.847 14.91-116.48 106.95-91.956" opacity=".3"/>
        <path fill="#9FC3FD" fill-rule="nonzero" d="M74.21 267.892a5.717 5.717 0 0 1 1.423-1.733 6.637 6.637 0 0 1 2.004-1.09c1.376-.414 2.8-.648 4.237-.694a30.482 30.482 0 0 1 4.153.062c1.37.083 2.731.27 4.07.477a.644.644 0 0 1 .54.737.654.654 0 0 1-.643.55l-4.019-.063c-1.329 0-2.658 0-3.956.125a16.471 16.471 0 0 0-3.728.653 7.561 7.561 0 0 0-3.115 1.743.613.613 0 0 1-.944-.757l-.021-.01zM73.951 263.908a4.66 4.66 0 0 1 1.506-1.546 8.892 8.892 0 0 1 1.931-.913 8.584 8.584 0 0 1 4.153-.321.342.342 0 0 1 .28.394.332.332 0 0 1-.342.29 10.33 10.33 0 0 0-3.79.592 11.757 11.757 0 0 0-3.27 1.909.332.332 0 0 1-.457 0 .332.332 0 0 1-.01-.405z"/>
        <path fill="#FFF" fill-rule="nonzero" d="M253.232 138.402v88.792c0 3.932-3.219 1.255-7.154 1.214l-131.019-1.463a7.078 7.078 0 0 1-7.008-7.075v-83.097l145.181 1.629z"/>
        <path fill="#FFF" fill-rule="nonzero" d="M246.473 228.356h-.385l-131.018-1.463a7.078 7.078 0 0 1-7.01-7.075v-83.045l145.183 1.629v59.558"/>
        <path fill="#717791" fill-rule="nonzero" d="M246.545 229.912l-112.878-1.245-14.101-.156H115.163c-.311 0-.706 0-1.038-.062a8.469 8.469 0 0 1-2.077-.519 8.665 8.665 0 0 1-5.358-6.224c-.062-.353-.124-.705-.155-1.037-.032-.332 0-.737 0-1.038v-82.858c0-.86.697-1.556 1.557-1.556l145.171 1.628c.85.006 1.537.696 1.537 1.546v14.887c-.062 4.959-.104 9.928-.218 14.887l-.29 14.887c-.084 4.97-.229 9.928-.364 14.897a.644.644 0 0 1-1.277 0c-.135-4.97-.28-9.928-.364-14.897l-.29-14.887c-.115-4.959-.156-9.928-.218-14.887a1016.38 1016.38 0 0 1-.052-14.887l1.547 1.556-145.286-1.618 1.578-1.556v83.522c0 .239.063.446.104.674a5.52 5.52 0 0 0 4.746 4.337h5.119l14.1.155 112.713 1.256h.166a1.557 1.557 0 1 1 0 3.112l.031.083z"/>
        <ellipse cx="325.294" cy="41.507" fill="#E5EEFD" fill-rule="nonzero" rx="6.801" ry="6.795"/>
        <path fill="#E5EEFD" fill-rule="nonzero" d="M314.952 228.356h5.825"/>
        <path fill="#717791" fill-rule="nonzero" d="M314.952 227.62a7.67 7.67 0 0 1 2.917-.395c.977-.004 1.95.09 2.908.28a.872.872 0 0 1 .675 1.038.882.882 0 0 1-.675.674c-.958.186-1.932.28-2.908.28a7.67 7.67 0 0 1-2.917-.394.789.789 0 0 1-.447-1.038.81.81 0 0 1 .447-.446z"/>
        <path fill="#E5EEFD" fill-rule="nonzero" d="M48.99 228.356h261.684"/>
        <path fill="#717791" fill-rule="nonzero" d="M48.99 227.66c10.902-.32 21.805-.373 32.707-.362h98.124l65.416-.052h32.718c10.903 0 21.806 0 32.708.3a.924.924 0 0 1 0 1.837c-10.902.27-21.805.29-32.708.3h-32.718l-65.416-.051-65.416-.062H81.697c-10.902 0-21.805 0-32.708-.364a.706.706 0 0 1 0-1.4v-.145z"/>
        <path fill="#E5EEFD" fill-rule="nonzero" d="M42.552 228.356h.85"/>
        <path fill="#717791" fill-rule="nonzero" d="M42.572 227.318c.141-.02.285-.02.426 0 .072.002.143.02.208.052.076.019.149.047.218.083a1.037 1.037 0 0 1 .29 1.494c-.077.117-.176.22-.29.301a.935.935 0 0 1-.218.083.675.675 0 0 1-.208.052c-.141.02-.285.02-.426 0a1.038 1.038 0 1 1 0-2.075v.01z"/>
        <path fill="#E5EEFD" fill-rule="nonzero" d="M32.075 228.356h4.236"/>
        <path fill="#717791" fill-rule="nonzero" d="M32.075 227.609a9.914 9.914 0 0 1 2.076-.29c.7-.055 1.403.015 2.077.207a.872.872 0 0 1 0 1.67 5.903 5.903 0 0 1-2.077.208 10.62 10.62 0 0 1-2.076-.29.768.768 0 0 1-.561-.945.747.747 0 0 1 .56-.56z"/>
        <path fill="#E5EEFD" fill-rule="nonzero" d="M149.699 242.268h81.676"/>
        <path fill="#717791" fill-rule="nonzero" d="M149.699 241.572c3.395-.321 6.8-.363 10.207-.373l10.207-.052 20.424-.104h30.631c3.406 0 6.812 0 10.217.312a.913.913 0 0 1 .831.985.903.903 0 0 1-.83.84c-3.406.28-6.812.301-10.218.312h-30.631l-20.424-.114-10.207-.052c-3.406 0-6.812 0-10.207-.363a.706.706 0 0 1 0-1.4v.01z"/>
        <path fill="#E5EEFD" fill-rule="nonzero" d="M116.087 242.268h20.933"/>
        <path fill="#717791" fill-rule="nonzero" d="M116.087 241.51c3.49-.176 6.978-.249 10.467-.28 3.489-.031 6.978 0 10.466.197a.84.84 0 1 1 0 1.68c-3.488.219-6.977.23-10.466.198-3.489-.031-6.978-.093-10.467-.28a.758.758 0 1 1 0-1.515z"/>
        <g stroke="#C9D7ED" stroke-linecap="round" stroke-linejoin="round" stroke-width="2.33" opacity=".7">
            <path d="M294.58 11.733v8.05M298.608 15.758h-8.057"/>
        </g>
        <g stroke="#C9D7ED" stroke-linecap="round" stroke-linejoin="round" stroke-width="2.33" opacity=".7">
            <path d="M224.512.166v5.56M227.294 2.946h-5.555"/>
        </g>
        <ellipse cx="292.648" cy="152.075" stroke="#9FC3FD" stroke-linecap="round" stroke-linejoin="round" stroke-width="1.96" rx="2.617" ry="2.614"/>
        <g stroke="#C9D7ED" stroke-linecap="round" stroke-linejoin="round" stroke-width="2.33" opacity=".7">
            <path d="M60.577 43.727v11.11M66.132 49.288h-11.12"/>
        </g>
        <ellipse cx="349.176" cy="130.953" stroke="#C9D7ED" stroke-linecap="round" stroke-linejoin="round" stroke-width="2.33" rx="2.243" ry="2.241"/>
        <ellipse cx="131.808" cy="11.266" stroke="#C9D7ED" stroke-linecap="round" stroke-linejoin="round" stroke-width="2.33" rx="2.243" ry="2.241"/>
        <ellipse cx="80.088" cy="109.738" stroke="#9FC3FD" stroke-linecap="round" stroke-linejoin="round" stroke-width="1.96" rx="2.243" ry="2.241"/>
        <path stroke="#9FC3FD" stroke-linecap="round" stroke-linejoin="round" stroke-width="1.48" d="M258.335 89.717l4.557-3.968 3.966 4.553-4.558 3.969z"/>
        <path stroke="#9FC3FD" stroke-linecap="round" stroke-linejoin="round" stroke-width="1.472" d="M34.929 115.834l-1.083-3.997 3.994-1.082 1.083 3.997z"/>
        <path fill="#E5EEFD" fill-rule="nonzero" stroke="#717791" stroke-linecap="round" stroke-linejoin="round" stroke-width="3" d="M181.451 193.779l-73.4-56.996 58.656-38.81a23.11 23.11 0 0 1 25.522 0l61.003 40.46-71.78 55.346z"/>
        <g transform="translate(123.563 67.432)">
            <path fill="#3F72BA" fill-rule="nonzero" d="M6.23 56.57h101.322a5.439 5.439 0 0 1 5.441 5.436v82.112H.841V62.017a5.438 5.438 0 0 1 5.39-5.447z" opacity=".2"/>
            <path fill="#FFF" fill-rule="nonzero" d="M93.451 2.075h8.754a4.754 4.754 0 0 1 4.745 4.71l.187 114.842a4.728 4.728 0 0 1-1.38 3.358 4.737 4.737 0 0 1-3.355 1.393l-89.807.156a4.727 4.727 0 0 1-3.358-1.38 4.718 4.718 0 0 1-1.387-3.351L7.653 6.96a4.753 4.753 0 0 1 4.734-4.751l58.273-.104"/>
            <path fill="#FFF" fill-rule="nonzero" d="M104.281 125.994a4.76 4.76 0 0 1-1.88.384l-89.806.156a4.727 4.727 0 0 1-3.358-1.38 4.718 4.718 0 0 1-1.387-3.351L7.653 6.96a4.753 4.753 0 0 1 4.734-4.751l58.273-.104"/>
            <path fill="#717791" fill-rule="nonzero" d="M104.562 126.637a4.831 4.831 0 0 1-2.41.85c-.737.084-1.463.146-2.19.188-1.454.062-2.918 0-4.372.052h-8.743l-17.496.062-34.982.145-17.485.062H12.48a6.232 6.232 0 0 1-4.953-2.562 6.056 6.056 0 0 1-1.121-2.646 3.97 3.97 0 0 1-.083-.715v-6.08l-.135-34.95-.073-69.901V6.785A6.299 6.299 0 0 1 11.422.726a19.268 19.268 0 0 1 2.43-.093h39.363c5.825.093 11.661-.343 17.486.664a.862.862 0 0 1 .706 1.037.851.851 0 0 1-.706.695c-5.825 1.038-11.65.623-17.486.726H13.862a17.668 17.668 0 0 0-1.931 0 3.19 3.19 0 0 0-1.34.56 3.111 3.111 0 0 0-1.308 2.48v4.326l.166 69.901v40.874c-.01.125-.01.25 0 .374.076.484.269.943.56 1.338a3.23 3.23 0 0 0 2.534 1.328h87.45c.727 0 1.454.093 2.18.187.613.113 1.24.134 1.86.062a.727.727 0 0 1 .799.643c.102.3-.009.63-.27.81z"/>
            <path fill="#FFF" fill-rule="nonzero" d="M93.451 2.075h8.754a4.754 4.754 0 0 1 4.745 4.71l.104 61.996"/>
            <path fill="#717791" fill-rule="nonzero" d="M93.451 1.37a3.605 3.605 0 0 1 2.44-.675c.82 0 1.63-.062 2.45-.083h4.404c.26 0 .53.073.789.125a6.28 6.28 0 0 1 4.537 4.066c.179.502.287 1.025.322 1.556v3.766l.26 19.545c.041 3.258.059 6.515.052 9.773v9.772c0 3.257-.166 6.515-.301 9.772l-.208 4.887c-.083 1.628-.083 3.257-.312 4.886a.862.862 0 0 1-1.703 0c-.228-1.629-.228-3.258-.321-4.886l-.218-4.887c-.156-3.257-.291-6.515-.343-9.772a766.556 766.556 0 0 1-.083-9.772c-.01-3.258 0-6.515 0-9.773l.197-19.545V6.577a3.162 3.162 0 0 0-.145-.83 3.26 3.26 0 0 0-2.42-2.178 3.98 3.98 0 0 0-.903-.063h-3.613c-.81 0-1.63 0-2.44-.072a3.668 3.668 0 0 1-2.451-.654.933.933 0 0 1-.125-1.296l.135-.115z"/>
            <path fill="#B8D4FF" fill-rule="nonzero" d="M99.526 44.142L85.778 30.376l-21.826 20.79-10.456-8.694-10.114 9.534-16.208-14.908-11.204 10.83-1.08 8.175 2.492 1.785 80.181.55 1.786-2.386.083-8.632z"/>
            <rect width="84.49" height="47.856" x="15.059" y="10.71" stroke="#717791" stroke-linecap="round" stroke-linejoin="round" stroke-width="2" rx="3.04" transform="rotate(-.1 57.305 34.638)"/>
            <path stroke="#717791" stroke-linecap="round" stroke-linejoin="round" stroke-width="2" d="M15.077 44.567l9.47-9.492L40.61 51.082M37.754 48.24l.696.684M33.103 58.604l18.565-18.601 9.47 9.42"/>
            <path fill="#717791" fill-rule="nonzero" d="M58.054 52.452c1.464-2.615 3.717-4.45 5.68-6.578l6.043-6.224c4.07-4.098 8.14-8.196 12.315-12.2a1.039 1.039 0 0 1 1.453 0l16.49 16.422a1.037 1.037 0 0 1-1.465 1.463L82.092 28.944h1.464c-3.977 4.15-8.068 8.3-12.149 12.345l-6.23 6.069c-2.077 1.971-3.956 4.222-6.573 5.685a.426.426 0 0 1-.591-.166.415.415 0 0 1 .041-.425z"/>
            <ellipse cx="39.478" cy="26.164" fill="#FDD1BE" fill-rule="nonzero" stroke="#717791" stroke-linecap="round" stroke-linejoin="round" stroke-width="2" rx="7.881" ry="7.874"/>
            <path fill="#E5EEFD" fill-rule="nonzero" d="M23.3 81.406l70.712-.125"/>
            <path fill="#A3ACD6" fill-rule="nonzero" d="M23.3 80.586c5.898-.425 11.786-.508 17.652-.498l17.652.073c5.888 0 11.786.104 17.652.156 5.867.052 11.786.207 17.652.3a.675.675 0 0 1 0 1.339c-5.898.114-11.785.29-17.652.363-5.866.072-11.775.197-17.652.218l-17.652.135c-5.897 0-11.785 0-17.651-.436a.83.83 0 0 1 0-1.65z"/>
            <path fill="#E5EEFD" fill-rule="nonzero" d="M51.398 91.158l42.624-.073"/>
            <path fill="#A3ACD6" fill-rule="nonzero" d="M51.398 90.473c3.551-.374 7.103-.54 10.654-.602 3.55-.062 7.102 0 10.653 0s7.113.104 10.664.197c3.551.094 7.102.218 10.653.405a.602.602 0 0 1 .582.643.612.612 0 0 1-.582.581c-3.55.197-7.102.353-10.653.436-3.551.083-7.102.197-10.653.238-3.552.042-7.103.083-10.654 0s-7.113-.207-10.664-.57a.685.685 0 1 1 0-1.37v.042z"/>
            <path fill="#3F72BA" fill-rule="nonzero" d="M107.573 105.215l-.623-25.054-49.29 36.61L7.724 79.736l.426 15.198 12.46 11.35s35.366 21.194 37.298 21.194c1.931 0 49.498-22.907 49.498-22.907" opacity=".2"/>
            <path fill="#E5EEFD" fill-rule="nonzero" d="M23.321 91.21l17.933-.032"/>
            <path fill="#A3ACD6" fill-rule="nonzero" d="M23.321 90.431a41.31 41.31 0 0 1 8.961-.508c2.99 0 5.981.176 8.972.477a.778.778 0 1 1 0 1.556c-2.99.301-5.981.447-8.972.509a42.693 42.693 0 0 1-8.971-.477.789.789 0 0 1 0-1.557h.01z"/>
            <path fill="#E5EEFD" fill-rule="nonzero" d="M85.799 100.899l8.244-.02"/>
            <path fill="#A3ACD6" fill-rule="nonzero" d="M85.799 100.37a16.814 16.814 0 0 1 4.153-.737 13.604 13.604 0 0 1 2.077 0c.71.053 1.408.203 2.076.446a.872.872 0 0 1 0 1.619 7.336 7.336 0 0 1-2.076.456c-.691.058-1.386.058-2.077 0-1.41-.058-2.806-.3-4.153-.716a.56.56 0 0 1-.353-.705.519.519 0 0 1 .353-.363z"/>
            <path fill="#E5EEFD" fill-rule="nonzero" d="M23.342 101.003l50.723-.083"/>
            <path fill="#A3ACD6" fill-rule="nonzero" d="M23.342 100.411c4.23-.152 8.456-.273 12.678-.363L48.7 99.81l12.688-.146c4.23-.114 8.463.011 12.678.374a.882.882 0 0 1 0 1.753 110.34 110.34 0 0 1-12.688.425l-12.678-.103-12.69-.197c-4.222-.076-8.448-.18-12.677-.312a.602.602 0 0 1-.582-.622.592.592 0 0 1 .592-.57z"/>
            <path fill="#E5EEFD" fill-rule="nonzero" d="M23.29 71.25l50.723-.094"/>
            <path fill="#A3ACD6" fill-rule="nonzero" d="M23.28 70.648c4.236-.145 8.466-.266 12.688-.363l12.679-.228 12.688-.146c4.23-.124 8.463 0 12.678.374a.882.882 0 0 1 0 1.753 112.73 112.73 0 0 1-12.688.415l-12.678-.104-12.689-.186a706.6 706.6 0 0 1-12.678-.322.602.602 0 0 1 0-1.193z"/>
            <path fill="#E5EEFD" fill-rule="nonzero" d="M82.466 71.146l9.999-.02"/>
            <path fill="#A3ACD6" fill-rule="nonzero" d="M82.466 70.544a48.273 48.273 0 0 1 5.004-.56c.831-.062 1.662-.104 2.492-.135a4.728 4.728 0 0 1 2.503.394c.468.268.653.85.426 1.339-.097.18-.245.328-.426.425-.778.36-1.64.5-2.492.405-.841 0-1.672-.063-2.503-.125a50.662 50.662 0 0 1-4.994-.54.623.623 0 0 1-.509-.705.602.602 0 0 1 .499-.498z"/>
            <path fill="#E5EEFD" fill-rule="nonzero" d="M23.352 110.806l45.096-.083"/>
            <path fill="#A3ACD6" fill-rule="nonzero" d="M23.352 110.256c3.76-.197 7.518-.352 11.277-.446 3.759-.093 7.518-.217 11.276-.259 7.517-.263 15.042-.12 22.543.425a.758.758 0 0 1 0 1.505c-7.518.747-15.035.55-22.553.508-3.759 0-7.518-.125-11.276-.228a584.812 584.812 0 0 1-11.277-.405.55.55 0 1 1 0-1.1h.01z"/>
            <path fill="#FFF" fill-rule="nonzero" d="M77.243 2.096h.498"/>
            <path fill="#717791" fill-rule="nonzero" d="M77.243 1.037l.498-.103a1.225 1.225 0 0 1 1.443.933A1.214 1.214 0 0 1 78.25 3.3a1.04 1.04 0 0 1-.498 0l-.499-.093a1.11 1.11 0 0 1 0-2.169h-.01z"/>
        </g>
        <path fill="#FFF" fill-rule="nonzero" d="M110.511 225.192l61.74-40.843a13.083 13.083 0 0 1 14.434 0l63.983 42.399"/>
        <path fill="#FFF" fill-rule="nonzero" d="M161.204 191.652l11.048-7.262a13.083 13.083 0 0 1 14.433 0l63.983 42.4"/>
        <path fill="#717791" fill-rule="nonzero" d="M160.84 191.102a70.602 70.602 0 0 1 10.54-7.915 14.711 14.711 0 0 1 6.81-2.438c2.452-.23 4.92.167 7.176 1.151a20.409 20.409 0 0 1 3.115 1.754l2.752 1.805 5.513 3.6 11.007 7.261 21.95 14.524 21.868 14.649c.717.475.912 1.441.436 2.157a1.559 1.559 0 0 1-2.16.436l-22.013-14.43-21.93-14.524-10.933-7.324-5.462-3.673-2.73-1.826a16.783 16.783 0 0 0-2.607-1.545 11.618 11.618 0 0 0-11.152.913 71.07 71.07 0 0 1-11.422 6.608.675.675 0 0 1-.737-1.11l-.02-.073z"/>
        <path fill="#FFF" fill-rule="nonzero" d="M149.834 199.184l.54-.363"/>
        <path fill="#717791" fill-rule="nonzero" d="M149.242 198.291l.405-.57a1.413 1.413 0 0 1 2.557.909 1.411 1.411 0 0 1-1.104 1.29l-.675.156a1.143 1.143 0 0 1-1.183-1.785z"/>
        <path fill="#FFF" fill-rule="nonzero" d="M110.511 225.192l35.346-23.373"/>
        <path fill="#717791" fill-rule="nonzero" d="M109.66 223.895c2.928-1.96 5.835-3.963 8.784-5.913l8.847-5.82 8.888-5.768a98.112 98.112 0 0 1 9.127-5.405 1.039 1.039 0 0 1 1.34.446c.19.412.088.9-.25 1.203a95.19 95.19 0 0 1-8.545 6.287l-8.774 5.924-8.826 5.861c-2.938 1.96-5.918 3.86-8.878 5.778a1.548 1.548 0 0 1-2.15-.446 1.566 1.566 0 0 1 .437-2.147z"/>
        <path fill="#9FC3FD" fill-rule="nonzero" d="M120.853 64.755a44.851 44.851 0 0 1-4.911-1.815c-1.6-.685-3.115-1.432-4.714-2.22a95.996 95.996 0 0 1-4.61-2.428 91.734 91.734 0 0 1-4.496-2.687 1.037 1.037 0 0 1 .861-1.763 76.571 76.571 0 0 1 4.88 1.888c1.6.674 3.188 1.4 4.756 2.147a93.273 93.273 0 0 1 4.652 2.366 43.908 43.908 0 0 1 4.444 2.76c.428.332.527.937.229 1.39-.258.329-.687.472-1.09.362zM119.41 54.547a16.178 16.178 0 0 1-2.523-1.774 30.039 30.039 0 0 1-2.212-2.075c-.706-.715-1.38-1.473-2.077-2.25-.665-.78-1.279-1.601-1.837-2.46a1.037 1.037 0 0 1 1.453-1.38c.859.56 1.68 1.173 2.461 1.837.79.654 1.547 1.318 2.274 2.075a28.02 28.02 0 0 1 2.077 2.2 16.422 16.422 0 0 1 1.786 2.52 1.037 1.037 0 0 1-.416 1.38 1.04 1.04 0 0 1-.986-.073zM129.794 57.743c-.514-.877-.941-1.801-1.278-2.76a26 26 0 0 1-.851-2.915 49.237 49.237 0 0 1-.623-2.978 24.876 24.876 0 0 1-.332-3.112 1.038 1.038 0 0 1 .955-1.037c.388-.009.748.2.934.54.456.918.855 1.864 1.195 2.831.342.955.654 1.92.924 2.905.285.972.517 1.96.695 2.957.195 1.025.282 2.068.26 3.112 0 .573-.465 1.037-1.038 1.037a1.038 1.038 0 0 1-.841-.58z"/>
    </g>
</svg>
